<svg width="50" height="50" viewBox="0 0 50 50" fill="none" xmlns="http://www.w3.org/2000/svg">
<g clip-path="url(#clip0_46_61)">
<mask id="mask0_46_61" style="mask-type:luminance" maskUnits="userSpaceOnUse" x="0" y="0" width="50" height="50">
<path d="M50 25C50 11.1929 38.8071 0 25 0C11.1929 0 0 11.1929 0 25C0 38.8071 11.1929 50 25 50C38.8071 50 50 38.8071 50 25Z" fill="white"/>
</mask>
<g mask="url(#mask0_46_61)">
<path d="M50 0H0V50H50V0Z" fill="#FA4B00"/>
<path d="M47.9814 34.2298C45.0834 19.321 30.6482 9.58432 15.7394 12.4823C0.830589 15.3803 -8.9061 29.8155 -6.00812 44.7243C-3.11015 59.6331 11.3251 69.3698 26.2339 66.4718C41.1427 63.5738 50.8793 49.1386 47.9814 34.2298Z" fill="#1F1F1F"/>
<path d="M10.7621 32.9072C10.546 34.2716 11.0614 35.6945 12.1949 36.8629C13.3284 38.0314 14.9872 38.8497 16.8063 39.1378C18.6254 39.4259 20.4558 39.1602 21.8949 38.3992C23.334 37.6383 24.2639 36.4443 24.48 35.0799" fill="white"/>
<path d="M9.79073 25.7224C9.91073 24.9648 9.54737 24.2776 8.97916 24.1876C8.41095 24.0976 7.85304 24.6389 7.73305 25.3965C7.61305 26.1541 7.97641 26.8412 8.54462 26.9312C9.11283 27.0212 9.67074 26.48 9.79073 25.7224Z" fill="white"/>
<path d="M28.9958 28.7642C29.1158 28.0065 28.7525 27.3194 28.1842 27.2294C27.616 27.1394 27.0581 27.6806 26.9381 28.4382C26.8181 29.1959 27.1815 29.883 27.7497 29.973C28.3179 30.063 28.8758 29.5218 28.9958 28.7642Z" fill="white"/>
</g>
</g>
<defs>
<clipPath id="clip0_46_61">
<rect width="50" height="50" fill="white"/>
</clipPath>
</defs>
</svg>
