<svg width="50" height="50" viewBox="0 0 50 50" fill="none" xmlns="http://www.w3.org/2000/svg">
<g clip-path="url(#clip0_46_184)">
<mask id="mask0_46_184" style="mask-type:luminance" maskUnits="userSpaceOnUse" x="0" y="0" width="50" height="50">
<path d="M50 25C50 11.1929 38.8071 0 25 0C11.1929 0 0 11.1929 0 25C0 38.8071 11.1929 50 25 50C38.8071 50 50 38.8071 50 25Z" fill="white"/>
</mask>
<g mask="url(#mask0_46_184)">
<path d="M50 0H0V50H50V0Z" fill="#00875E"/>
<path d="M12.5348 38.0706L44.2366 48.3711C48.6138 49.7934 53.315 47.3979 54.7373 43.0208L65.0378 11.3189C66.46 6.94182 64.0646 2.24053 59.6875 0.81832L27.9856 -9.48225C23.6085 -10.9045 18.9072 -8.50903 17.485 -4.13191L7.18442 27.57C5.76221 31.9471 8.15764 36.6484 12.5348 38.0706Z" fill="#F5CC17"/>
<path d="M26.6228 25.5664C29.5668 26.5552 32.3176 26.1686 34.875 24.4066" stroke="black" stroke-width="3.55556" stroke-linecap="round"/>
<path d="M22.4111 20.5481C22.3044 19.7885 21.756 19.2377 21.1863 19.3177C20.6166 19.3978 20.2413 20.0785 20.3481 20.8381C20.4548 21.5977 21.0032 22.1485 21.5729 22.0685C22.1426 21.9884 22.5179 21.3077 22.4111 20.5481Z" fill="black"/>
<path d="M38.9157 18.2286C38.8089 17.469 38.2605 16.9181 37.6908 16.9982C37.1211 17.0782 36.7458 17.7589 36.8526 18.5185C36.9594 19.2781 37.5077 19.829 38.0774 19.7489C38.6471 19.6688 39.0224 18.9882 38.9157 18.2286Z" fill="black"/>
</g>
</g>
<defs>
<clipPath id="clip0_46_184">
<rect width="50" height="50" fill="white"/>
</clipPath>
</defs>
</svg>
