<svg width="50" height="50" viewBox="0 0 50 50" fill="none" xmlns="http://www.w3.org/2000/svg">
<g clip-path="url(#clip0_46_211)">
<mask id="mask0_46_211" style="mask-type:luminance" maskUnits="userSpaceOnUse" x="0" y="0" width="50" height="50">
<path d="M50 25C50 11.1929 38.8071 0 25 0C11.1929 0 0 11.1929 0 25C0 38.8071 11.1929 50 25 50C38.8071 50 50 38.8071 50 25Z" fill="white"/>
</mask>
<g mask="url(#mask0_46_211)">
<path d="M50 0H0V50H50V0Z" fill="#04394E"/>
<path d="M22.1418 59.688C35.93 58.9654 46.5217 47.202 45.7991 33.4138C45.0765 19.6256 33.3132 9.03388 19.525 9.75649C5.73679 10.4791 -4.85496 22.2424 -4.13235 36.0306C-3.40975 49.8188 8.35359 60.4106 22.1418 59.688Z" fill="#A7CC15"/>
<path d="M8.55432 32.086C8.72266 33.457 9.6103 34.6827 11.022 35.4935C12.4336 36.3042 14.2537 36.6336 16.0817 36.4092C17.9098 36.1847 19.5961 35.4248 20.7697 34.2966C21.9433 33.1684 22.508 31.7644 22.3397 30.3933" fill="black"/>
<path d="M8.56654 26.4872C8.47305 25.7258 7.93438 25.1655 7.36337 25.2356C6.79236 25.3057 6.40525 25.9797 6.49873 26.7411C6.59221 27.5024 7.13089 28.0628 7.7019 27.9927C8.2729 27.9226 8.66002 27.2485 8.56654 26.4872Z" fill="black"/>
<path d="M22.3519 24.7946C22.2585 24.0332 21.7198 23.4729 21.1488 23.543C20.5778 23.6131 20.1906 24.2871 20.2841 25.0485C20.3776 25.8098 20.9163 26.3702 21.4873 26.3C22.0583 26.2299 22.4454 25.5559 22.3519 24.7946Z" fill="black"/>
</g>
</g>
<defs>
<clipPath id="clip0_46_211">
<rect width="50" height="50" fill="white"/>
</clipPath>
</defs>
</svg>
