<svg width="50" height="50" viewBox="0 0 50 50" fill="none" xmlns="http://www.w3.org/2000/svg">
<g clip-path="url(#clip0_46_222)">
<mask id="mask0_46_222" style="mask-type:luminance" maskUnits="userSpaceOnUse" x="0" y="0" width="50" height="50">
<path d="M50 25C50 11.1929 38.8071 0 25 0C11.1929 0 0 11.1929 0 25C0 38.8071 11.1929 50 25 50C38.8071 50 50 38.8071 50 25Z" fill="white"/>
</mask>
<g mask="url(#mask0_46_222)">
<path d="M50 0H0V50H50V0Z" fill="#A7CC15"/>
<path d="M35.9042 53.0597C49.5549 46.4018 55.2237 29.9384 48.5658 16.2877C41.9079 2.63697 25.4445 -3.03184 11.7938 3.62607C-1.85695 10.284 -7.52575 26.7474 -0.867846 40.3981C5.79006 54.0488 22.2535 59.7176 35.9042 53.0597Z" fill="#F56217"/>
<path d="M20.6497 21.9247C23.3238 23.504 26.0948 23.6978 28.9627 22.506" stroke="black" stroke-width="3.55556" stroke-linecap="round"/>
<path d="M16.2848 14.6582C16.3383 13.893 15.9165 13.2401 15.3426 13.2C14.7687 13.1599 14.2601 13.7476 14.2066 14.5128C14.1531 15.278 14.5749 15.9309 15.1488 15.971C15.7227 16.0111 16.2313 15.4233 16.2848 14.6582Z" fill="black"/>
<path d="M35.6819 16.0145C35.7354 15.2493 35.3136 14.5965 34.7397 14.5564C34.1658 14.5162 33.6572 15.104 33.6037 15.8692C33.5502 16.6344 33.972 17.2872 34.5459 17.3274C35.1198 17.3675 35.6284 16.7797 35.6819 16.0145Z" fill="black"/>
</g>
</g>
<defs>
<clipPath id="clip0_46_222">
<rect width="50" height="50" fill="white"/>
</clipPath>
</defs>
</svg>
