<svg width="50" height="50" viewBox="0 0 50 50" fill="none" xmlns="http://www.w3.org/2000/svg">
<g clip-path="url(#clip0_46_233)">
<mask id="mask0_46_233" style="mask-type:luminance" maskUnits="userSpaceOnUse" x="0" y="0" width="50" height="50">
<path d="M50 25C50 11.1929 38.8071 0 25 0C11.1929 0 0 11.1929 0 25C0 38.8071 11.1929 50 25 50C38.8071 50 50 38.8071 50 25Z" fill="white"/>
</mask>
<g mask="url(#mask0_46_233)">
<path d="M50 0H0V50H50V0Z" fill="#F56217"/>
<path d="M2.63348 48.9371L41.8986 56.5695C47.3199 57.6233 52.5691 54.0827 53.6229 48.6613L61.2553 9.39624C62.3091 3.97486 58.7685 -1.27431 53.3471 -2.32812L14.082 -9.96048C8.66065 -11.0143 3.41147 -7.47368 2.35766 -2.0523L-5.2747 37.2128C-6.32851 42.6342 -2.78789 47.8833 2.63348 48.9371Z" fill="#00875E"/>
<path d="M30.6289 29.2388C33.4305 30.579 36.2079 30.5305 38.961 29.0933" stroke="white" stroke-width="3.55556" stroke-linecap="round"/>
<path d="M29.7891 20.9188C29.7758 20.1519 29.2986 19.5383 28.7234 19.5483C28.1482 19.5584 27.6927 20.1883 27.7061 20.9552C27.7195 21.7222 28.1967 22.3357 28.7719 22.3257C29.3471 22.3157 29.8025 21.6858 29.7891 20.9188Z" fill="white"/>
<path d="M40.8985 20.7249C40.8851 19.958 40.408 19.3444 39.8328 19.3544C39.2576 19.3645 38.8021 19.9944 38.8155 20.7613C38.8289 21.5282 39.306 22.1418 39.8812 22.1318C40.4565 22.1218 40.9119 21.4919 40.8985 20.7249Z" fill="white"/>
</g>
</g>
<defs>
<clipPath id="clip0_46_233">
<rect width="50" height="50" fill="white"/>
</clipPath>
</defs>
</svg>
